*************************************************************************************

Love for All and Sharing is the first step to solving all the problems of humanity.

Website I want to share.
             

 scenetime,com

- Latest Releases
- Super Fast Speeds
- Good Community
- Competitions with prizes (yay)
- Love for the Scene


 Credit to EVERYONE for sharing and seeding back
especially to SceneTime where i get all my
downloads.

For more info about this release, open .NFO file with notepad !!!
support scenetime to grow faster.

*************************************************************************************		 
http://static.schoolrack.com/files/216702/559958/DEAD-MAN-DOWN-Poster.jpg

SOURCE: HustleHard (Thanks!)

General
Complete name                            : Dead.Man.Down.2013.CAM.x264-MaxPc.mp4
Format                                   : MPEG-4
Format profile                           : Base Media
Codec ID                                 : isom
File size                                : 450 MiB
Duration                                 : 1h 33mn
Overall bit rate mode                    : Variable
Overall bit rate                         : 669 Kbps

Video
ID                                       : 1
Format                                   : AVC
Format/Info                              : Advanced Video Codec
Format profile                           : High@L4.1
Format settings, CABAC                   : Yes
Format settings, ReFrames                : 4 frames
Codec ID                                 : avc1
Codec ID/Info                            : Advanced Video Coding
Duration                                 : 1h 33mn
Bit rate                                 : 616 Kbps
Maximum bit rate                         : 1 070 Kbps
Width                                    : 720 pixels
Height                                   : 352 pixels
Display aspect ratio                     : 2.045
Frame rate mode                          : Constant
Frame rate                               : 29.970 fps
Color space                              : YUV
Chroma subsampling                       : 4:2:0
Bit depth                                : 8 bits
Scan type                                : Progressive
Bits/(Pixel*Frame)                       : 0.081
Stream size                              : 414 MiB (92%)
Title                                    : Man.Down.2103.CAM.XviD-

Audio
ID                                       : 2
Format                                   : AAC
Format/Info                              : Advanced Audio Codec
Format profile                           : LC
Codec ID                                 : 40
Duration                                 : 1h 33mn
Bit rate mode                            : Variable
Bit rate                                 : 48.0 Kbps
Maximum bit rate                         : 52.7 Kbps
Channel(s)                               : 2 channels
Channel positions                        : Front: L R
Sampling rate                            : 48.0 KHz
Compression mode                         : Lossy
Stream size                              : 33.6 MiB (7%)

SCREENS
 
http://s20.postimg.org/5mqcacon1/screen2013_03_23_18h04m08s131.png 
http://s20.postimg.org/mfq709g3h/screen2013_03_23_18h07m20s226.png 
http://s20.postimg.org/fnzrxer3x/screen2013_03_23_18h06m39s57.png